<svg id="heart" xmlns="http://www.w3.org/2000/svg" width="25.291" height="21.992" viewBox="0 0 25.291 21.992">
  <g id="Group_87" data-name="Group 87" transform="translate(0 0)">
    <path id="Path_64" data-name="Path 64" d="M1.816,35.5A6.347,6.347,0,0,1,6.6,33.391a6.643,6.643,0,0,1,5.32,2.792,10.062,10.062,0,0,1,.728,1.074,10.057,10.057,0,0,1,.728-1.074,6.643,6.643,0,0,1,5.32-2.792A6.347,6.347,0,0,1,23.474,35.5a7.3,7.3,0,0,1,1.816,4.911c0,2.119-.914,4.159-2.876,6.418a67.16,67.16,0,0,1-7.024,6.475c-.712.6-1.449,1.226-2.209,1.878a.825.825,0,0,1-1.073,0c-.76-.652-1.5-1.275-2.209-1.878a67.166,67.166,0,0,1-7.024-6.475C.914,44.572,0,42.533,0,40.413A7.3,7.3,0,0,1,1.816,35.5Zm2.3,10.248a66.219,66.219,0,0,0,6.844,6.3q.818.693,1.68,1.426.862-.735,1.68-1.426a66.219,66.219,0,0,0,6.844-6.3c1.709-1.969,2.472-3.615,2.472-5.337a5.06,5.06,0,0,0-4.948-5.373,4.976,4.976,0,0,0-3.99,2.12,8.634,8.634,0,0,0-1.276,2.267.824.824,0,0,1-.78.56h0a.826.826,0,0,1-.781-.56,8.633,8.633,0,0,0-1.276-2.268A4.976,4.976,0,0,0,6.6,35.04a5.06,5.06,0,0,0-4.948,5.373C1.649,42.136,2.412,43.782,4.121,45.75Z" transform="translate(0 -33.391)"/>
  </g>
</svg>
